<svg width="71" height="67" viewBox="0 0 71 67" fill="none" xmlns="http://www.w3.org/2000/svg">
<path fill-rule="evenodd" clip-rule="evenodd" d="M23.9036 19.273C25.0776 18.8658 26.3595 19.4874 26.7667 20.6614L29.7161 29.1644C30.1233 30.3384 29.5017 31.6203 28.3277 32.0275C27.1537 32.4347 25.8718 31.8131 25.4646 30.6391L22.5152 22.1361C22.108 20.9621 22.7296 19.6802 23.9036 19.273Z" fill="#DBDBDB"/>
<path fill-rule="evenodd" clip-rule="evenodd" d="M46.5781 11.4082C47.7522 11.001 49.034 11.6226 49.4412 12.7966L52.3907 21.2996C52.7979 22.4737 52.1763 23.7555 51.0023 24.1627C49.8282 24.57 48.5464 23.9484 48.1392 22.7743L45.1897 14.2714C44.7825 13.0973 45.4041 11.8155 46.5781 11.4082Z" fill="#DBDBDB"/>
<path opacity="0.4" d="M69.1671 26.1813L77.7793 51.01C77.9366 51.4635 78.0656 51.9269 78.1847 52.3618L24.4458 71.0021C24.27 70.5868 24.0843 70.1432 23.927 69.6897L15.3147 44.8609C12.6701 37.2366 16.7057 28.9145 24.3301 26.2698L50.576 17.166C58.2003 14.5213 66.5224 18.5569 69.1671 26.1813Z" fill="#DBDBDB"/>
<path d="M78.1847 52.3618C79.9328 59.5985 75.9349 67.1137 68.764 69.601L42.5181 78.7049C35.3473 81.1922 27.5544 77.7669 24.4458 71.002L78.1847 52.3618Z" fill="#DBDBDB"/>
<path d="M49.7726 43.2284C50.7433 41.9073 51.0846 40.3283 50.4751 38.571C49.197 34.8864 45.5906 34.0098 42.1327 35.2092C38.6748 36.4087 36.3575 39.34 37.6356 43.0246C38.2451 44.7819 39.5291 45.8289 41.0712 46.2466C39.6962 47.8667 39.2744 49.8547 39.9429 51.7821C41.162 55.2966 44.6116 56.5451 49.0048 55.0212C53.3697 53.5072 55.3337 50.3809 54.1146 46.8664C53.446 44.939 51.874 43.6109 49.7726 43.2284ZM43.3518 38.7238C44.8256 38.2126 46.1878 38.6609 46.6794 40.0781C47.1611 41.4669 46.3888 42.7192 44.915 43.2304C43.4411 43.7416 42.0593 43.2366 41.5776 41.8478C41.086 40.4306 41.8779 39.235 43.3518 38.7238ZM47.7759 51.4783C45.9053 52.1272 44.2203 51.6638 43.6305 49.9632C43.0406 48.2626 44.0865 46.8837 45.9571 46.2348C47.8278 45.5859 49.5127 46.0493 50.0927 47.7216C50.6826 49.4222 49.6466 50.8294 47.7759 51.4783Z" fill="#DBDBDB"/>
</svg>
