<svg width="75" height="70" viewBox="0 0 75 70" fill="none" xmlns="http://www.w3.org/2000/svg">
<path d="M83.9844 64.3217L27.2977 83.9845C26.1356 84.3875 24.8377 83.7581 24.4346 82.5961C24.0315 81.434 24.6609 80.136 25.823 79.733L82.5097 60.0702C83.6717 59.6671 84.9697 60.2965 85.3728 61.4586C85.7758 62.6207 85.1464 63.9186 83.9844 64.3217Z" fill="#DBDBDB"/>
<path d="M31.5673 25.347L49.2638 76.365L62.0183 71.9408L44.3218 20.9229C43.2404 17.8051 41.0801 15.6966 37.2538 17.0238L34.7029 17.9087C30.8765 19.2359 30.4859 22.2292 31.5673 25.347Z" fill="#DBDBDB"/>
<path opacity="0.4" d="M18.3344 48.9891L30.1321 83.0011L41.4694 79.0685L29.6718 45.0565C28.5903 41.9388 26.5718 39.7811 23.1706 40.9609L20.9031 41.7474C17.5019 42.9272 17.253 45.8713 18.3344 48.9891Z" fill="#DBDBDB"/>
<path opacity="0.4" d="M62.9306 49.3968L69.8126 69.2371L81.1499 65.3046L74.268 45.4642C73.1865 42.3465 71.168 40.1888 67.7668 41.3686L65.4993 42.1551C62.0981 43.3349 61.8492 46.279 62.9306 49.3968Z" fill="#DBDBDB"/>
</svg>
