<svg width="20" height="20" viewBox="0 0 20 20" fill="none" xmlns="http://www.w3.org/2000/svg">
<path d="M16.6667 18.3334V15.8334C16.6667 13.4767 16.6667 12.2984 15.9342 11.5659C15.2025 10.8334 14.0234 10.8334 11.6667 10.8334L10 12.5001L8.33337 10.8334C5.97671 10.8334 4.79754 10.8334 4.06587 11.5659C3.33421 12.2984 3.33337 13.4767 3.33337 15.8334V18.3334M13.3334 13.3334V15.8334M14.5834 14.5834H12.0834M12.9167 5.41675V4.58341C12.9167 3.80987 12.6094 3.068 12.0624 2.52102C11.5155 1.97404 10.7736 1.66675 10 1.66675C9.22649 1.66675 8.48463 1.97404 7.93765 2.52102C7.39066 3.068 7.08337 3.80987 7.08337 4.58341V5.41675C7.08337 5.79977 7.15882 6.17904 7.30539 6.53291C7.45197 6.88677 7.66681 7.2083 7.93765 7.47914C8.20848 7.74998 8.53001 7.96482 8.88388 8.1114C9.23775 8.25797 9.61702 8.33341 10 8.33341C10.3831 8.33341 10.7623 8.25797 11.1162 8.1114C11.4701 7.96482 11.7916 7.74998 12.0624 7.47914C12.3333 7.2083 12.5481 6.88677 12.6947 6.53291C12.8413 6.17904 12.9167 5.79977 12.9167 5.41675Z" stroke="#BCBCBC" stroke-width="1.5" stroke-linecap="round" stroke-linejoin="round"/>
</svg>
