<svg width="16" height="16" viewBox="0 0 16 16" fill="none" xmlns="http://www.w3.org/2000/svg">
<path d="M5.33301 1.8335H10.667C11.7381 1.83356 12.4209 2.13713 12.8418 2.59033C13.2689 3.05029 13.4999 3.74331 13.5 4.6665V11.3335C13.5 12.2568 13.2689 12.9497 12.8418 13.4097C12.4209 13.8629 11.7382 14.1664 10.667 14.1665H5.33301C4.26183 14.1664 3.57908 13.8629 3.1582 13.4097C2.73109 12.9497 2.5 12.2568 2.5 11.3335V4.6665C2.50005 3.74331 2.7311 3.05029 3.1582 2.59033C3.57909 2.13713 4.26191 1.83356 5.33301 1.8335ZM5.33301 10.3335C4.78368 10.3337 4.33301 10.7841 4.33301 11.3335C4.33301 11.8829 4.78368 12.3333 5.33301 12.3335H10.667C11.2163 12.3333 11.667 11.8829 11.667 11.3335C11.667 10.7841 11.2163 10.3337 10.667 10.3335H5.33301ZM5.33301 7.6665C4.78379 7.66668 4.33319 8.11728 4.33301 8.6665C4.33301 9.21587 4.78368 9.66633 5.33301 9.6665H8C8.54948 9.6665 9 9.21598 9 8.6665C8.99982 8.11718 8.54937 7.6665 8 7.6665H5.33301ZM9.66699 2.00049C9.11752 2.00049 8.66699 2.45101 8.66699 3.00049V4.3335C8.66699 5.62297 9.71052 6.6665 11 6.6665H12.333C12.8825 6.6665 13.333 6.21598 13.333 5.6665C13.3328 5.11718 12.8824 4.6665 12.333 4.6665H11C10.8161 4.6665 10.667 4.51735 10.667 4.3335V3.00049C10.667 2.45112 10.2163 2.00067 9.66699 2.00049Z" fill="#F59E0B" stroke="#F59E0B"/>
</svg>
