<svg width="20" height="20" viewBox="0 0 20 20" fill="none" xmlns="http://www.w3.org/2000/svg">
<path d="M17.9167 13.3768V6.62342C17.9161 6.16653 17.8247 5.71431 17.6479 5.29302C17.4711 4.87172 17.2123 4.48974 16.8867 4.16926C16.2233 3.51675 15.3297 3.15154 14.3992 3.15259H5.60004C4.66951 3.15154 3.77595 3.51675 3.11254 4.16926C2.78705 4.48981 2.52847 4.87182 2.3518 5.29311C2.17513 5.7144 2.08389 6.16659 2.08337 6.62342V13.3768C2.08337 14.2976 2.45421 15.1801 3.11337 15.8309C3.77679 16.4834 4.67035 16.8486 5.60087 16.8476H14.4C15.3334 16.8476 16.2275 16.4809 16.8875 15.8309C17.2132 15.5104 17.4719 15.1285 17.6487 14.7072C17.8255 14.2859 17.9161 13.8337 17.9167 13.3768Z" stroke="#BCBCBC" stroke-width="1.5" stroke-linecap="round" stroke-linejoin="round"/>
<path d="M9.6942 13.3067C9.6942 12.63 9.4242 11.9817 8.94254 11.5025C8.46004 11.0227 7.80721 10.7533 7.1267 10.7533C6.4462 10.7533 5.79337 11.0227 5.31087 11.5025C5.07272 11.7388 4.88369 12.0198 4.75468 12.3295C4.62568 12.6391 4.55924 12.9712 4.5592 13.3067M12.14 7.43253H15.135M12.14 10H13.4234M12.14 12.5675H15.135M7.1267 10.1167C7.58067 10.1167 8.01604 9.93636 8.33704 9.61536C8.65803 9.29436 8.83837 8.85899 8.83837 8.40503C8.83837 7.95106 8.65803 7.5157 8.33704 7.1947C8.01604 6.8737 7.58067 6.69336 7.1267 6.69336C6.67274 6.69336 6.23737 6.8737 5.91637 7.1947C5.59537 7.5157 5.41504 7.95106 5.41504 8.40503C5.41504 8.85899 5.59537 9.29436 5.91637 9.61536C6.23737 9.93636 6.67274 10.1167 7.1267 10.1167Z" stroke="#BCBCBC" stroke-width="1.5" stroke-linecap="round" stroke-linejoin="round"/>
</svg>
