<svg width="132" height="88" viewBox="0 0 132 88" fill="none" xmlns="http://www.w3.org/2000/svg">
<path d="M28.9682 10.143C24.5192 10.143 18.5 53.4081 18.5 53.4081V61.5H102.246C97.7969 61.5 96.2266 32.5466 91.7776 32.5466C87.3286 32.5466 85.7584 38.5217 81.3094 38.5217C76.8604 38.5217 75.2902 9.5 70.8412 9.5C66.3922 9.5 64.8219 32.0402 60.3729 32.0402C55.9239 32.0402 54.3537 19.2023 49.9047 19.2023C45.4557 19.2023 43.8855 47.6265 39.4365 47.6265C34.9875 47.6265 33.4172 10.143 28.9682 10.143Z" fill="url(#paint0_linear_5690_2497)"/>
<g filter="url(#filter0_ddd_5690_2497)">
<path d="M18.5 53.4081C18.5 53.4081 24.5192 10.143 28.9682 10.143C33.4172 10.143 34.9875 47.6265 39.4365 47.6265C43.8855 47.6265 45.4557 19.2023 49.9047 19.2023C54.3537 19.2023 55.9239 32.0402 60.3729 32.0402C64.8219 32.0402 66.3922 9.5 70.8412 9.5C75.2902 9.5 76.8604 38.5217 81.3094 38.5217C85.7584 38.5217 87.3286 32.5466 91.7776 32.5466C96.2266 32.5466 97.6609 59.5106 102.11 59.5106C106.559 59.5106 112.986 59.5106 112.986 59.5106" stroke="#14B8A6" stroke-linecap="round"/>
</g>
<defs>
<filter id="filter0_ddd_5690_2497" x="0" y="0" width="131.486" height="87.0105" filterUnits="userSpaceOnUse" color-interpolation-filters="sRGB">
<feFlood flood-opacity="0" result="BackgroundImageFix"/>
<feColorMatrix in="SourceAlpha" type="matrix" values="0 0 0 0 0 0 0 0 0 0 0 0 0 0 0 0 0 0 127 0" result="hardAlpha"/>
<feOffset dy="3"/>
<feGaussianBlur stdDeviation="1.5"/>
<feColorMatrix type="matrix" values="0 0 0 0 0.658824 0 0 0 0 0.945098 0 0 0 0 0.913725 0 0 0 0.4 0"/>
<feBlend mode="normal" in2="BackgroundImageFix" result="effect1_dropShadow_5690_2497"/>
<feColorMatrix in="SourceAlpha" type="matrix" values="0 0 0 0 0 0 0 0 0 0 0 0 0 0 0 0 0 0 127 0" result="hardAlpha"/>
<feOffset dy="6"/>
<feGaussianBlur stdDeviation="4.5"/>
<feColorMatrix type="matrix" values="0 0 0 0 0.658824 0 0 0 0 0.945098 0 0 0 0 0.913725 0 0 0 0.4 0"/>
<feBlend mode="normal" in2="effect1_dropShadow_5690_2497" result="effect2_dropShadow_5690_2497"/>
<feColorMatrix in="SourceAlpha" type="matrix" values="0 0 0 0 0 0 0 0 0 0 0 0 0 0 0 0 0 0 127 0" result="hardAlpha"/>
<feOffset dy="9"/>
<feGaussianBlur stdDeviation="9"/>
<feColorMatrix type="matrix" values="0 0 0 0 0.657008 0 0 0 0 0.945663 0 0 0 0 0.913981 0 0 0 0.4 0"/>
<feBlend mode="normal" in2="effect2_dropShadow_5690_2497" result="effect3_dropShadow_5690_2497"/>
<feBlend mode="normal" in="SourceGraphic" in2="effect3_dropShadow_5690_2497" result="shape"/>
</filter>
<linearGradient id="paint0_linear_5690_2497" x1="65.607" y1="9.5" x2="65.607" y2="61.5" gradientUnits="userSpaceOnUse">
<stop stop-color="#B0ECE5" stop-opacity="0.3"/>
<stop offset="1" stop-color="#DCFAF7" stop-opacity="0.05"/>
</linearGradient>
</defs>
</svg>
