<svg width="60" height="60" viewBox="0 0 60 60" fill="none" xmlns="http://www.w3.org/2000/svg">
<path d="M47.8 22.7999C46.825 22.7999 46.05 23.5749 46.05 24.5499V28.4999C46.05 37.3499 38.85 44.5499 30 44.5499C21.15 44.5499 13.95 37.3499 13.95 28.4999V24.5249C13.95 23.5499 13.175 22.7749 12.2 22.7749C11.225 22.7749 10.45 23.5499 10.45 24.5249V28.4749C10.45 38.6499 18.275 47.0249 28.25 47.9249V53.2499C28.25 54.2249 29.025 54.9999 30 54.9999C30.975 54.9999 31.75 54.2249 31.75 53.2499V47.9249C41.7 47.0499 49.55 38.6499 49.55 28.4749V24.5249C49.525 23.5749 48.75 22.7999 47.8 22.7999Z" fill="#418BF5"/>
<path d="M30 5C23.9 5 18.95 9.95 18.95 16.05V28.85C18.95 34.95 23.9 39.9 30 39.9C36.1 39.9 41.05 34.95 41.05 28.85V16.05C41.05 9.95 36.1 5 30 5ZM33.275 22.375C33.1 23.025 32.525 23.45 31.875 23.45C31.75 23.45 31.625 23.425 31.5 23.4C30.525 23.125 29.5 23.125 28.525 23.4C27.725 23.625 26.95 23.15 26.75 22.375C26.525 21.6 27 20.8 27.775 20.6C29.25 20.2 30.8 20.2 32.275 20.6C33.025 20.8 33.475 21.6 33.275 22.375ZM34.6 17.525C34.375 18.125 33.825 18.475 33.225 18.475C33.05 18.475 32.9 18.45 32.725 18.4C30.975 17.75 29.025 17.75 27.275 18.4C26.525 18.675 25.675 18.275 25.4 17.525C25.125 16.775 25.525 15.925 26.275 15.675C28.675 14.8 31.325 14.8 33.725 15.675C34.475 15.95 34.875 16.775 34.6 17.525Z" fill="#418BF5"/>
</svg>
