<svg width="178" height="160" viewBox="0 0 178 160" fill="none" xmlns="http://www.w3.org/2000/svg">
<path fill-rule="evenodd" clip-rule="evenodd" d="M98.1473 5.19974C74.156 4.82168 49.0516 5.93572 30.9026 19.8686C11.6447 34.6529 3.25929 57.0251 1.28851 79.5579C-0.875107 104.295 -3.09055 134.783 19.5826 149.295C41.8007 163.516 71.007 144.839 98.1473 141.552C118.938 139.034 142.092 144.852 157.846 132.549C174.202 119.778 176.63 98.8769 177.538 79.5579C178.499 59.1219 178.897 36.7968 163.046 21.9509C146.936 6.86183 121.564 5.56875 98.1473 5.19974Z" fill="#EBF4FF"/>
<path d="M138.781 86.6495C142.538 84.9147 153.447 86.9904 151.916 98.5014" stroke="#6AA7FF" stroke-width="2.78005" stroke-linecap="round"/>
<path d="M90.0207 75.9687C86.2297 79.8134 69.1852 84.4029 61.5613 72.8499" stroke="#6AA7FF" stroke-width="2.78005" stroke-linecap="round"/>
<path d="M84.296 37.2718C83.813 18.7726 99.2285 3.3312 117.616 5.41368C131.49 6.98496 142.383 18.2286 142.91 32.1815C144.341 70.0394 141.385 97.8659 131.491 134.213C127.808 147.743 114.589 156.237 100.656 154.659C82.2149 152.57 70.5244 134.13 75.1571 116.158C82.1793 88.9171 85.0382 65.698 84.296 37.2718Z" fill="#A9CCFF"/>
<path d="M138.003 25.7545C138.356 24.8637 139.659 25.0731 139.715 26.0291C142.306 69.5974 139.172 99.5736 128.512 134.099C125.284 144.553 115.343 151.344 104.382 151.202L101.536 151.164C93.0107 151.053 85.7199 147.125 82.1531 141.857C80.3723 139.227 79.5233 136.27 79.8927 133.283C80.262 130.297 81.8533 127.243 85.0219 124.423C94.7529 115.763 107.674 107.613 118.28 93.4474C128.908 79.2514 137.234 59.0076 137.939 26.0765C137.941 25.9665 137.964 25.8526 138.003 25.7545Z" fill="#A9CCFF" stroke="#A9CCFF" stroke-width="0.695013"/>
<circle cx="3.00879" cy="3.00879" r="3.00879" transform="matrix(-0.99527 -0.0971435 -0.0971435 0.99527 115.186 24.7207)" fill="white"/>
<circle cx="3.00879" cy="3.00879" r="3.00879" transform="matrix(-0.99527 -0.0971435 -0.0971435 0.99527 102.154 39.9551)" fill="white"/>
<circle cx="3.00879" cy="3.00879" r="3.00879" transform="matrix(-0.99527 -0.0971435 -0.0971435 0.99527 130.087 40.5127)" fill="white"/>
<circle cx="3.00879" cy="3.00879" r="3.00879" transform="matrix(0.961179 0.275925 0.275925 -0.961179 99.4562 134.037)" fill="white"/>
<circle cx="3.00879" cy="3.00879" r="3.00879" transform="matrix(0.961179 0.275925 0.275925 -0.961179 115.033 121.417)" fill="white"/>
<circle cx="3.00879" cy="3.00879" r="3.00879" transform="matrix(0.961179 0.275925 0.275925 -0.961179 87.6632 115.805)" fill="white"/>
<path d="M85.5093 95.9271C85.0054 98.1206 86.5026 100.282 88.7375 100.548L126.031 104.975C127.895 105.196 129.639 104.008 130.092 102.187C133.685 87.7501 134.785 78.3645 134.646 63.8811C134.628 62.0079 133.211 60.449 131.351 60.2282L94.0809 55.804C91.8348 55.5374 89.868 57.3067 89.8538 59.5684C89.7678 73.3539 88.596 82.4915 85.5093 95.9271Z" fill="#E8F0FA"/>
<path d="M104.062 69.3983C101.236 72.4215 98.2233 71.6699 96.6192 68.3902" stroke="#6AA7FF" stroke-width="1.87757" stroke-linecap="round"/>
<path d="M126.292 72.4092C123.467 75.4324 120.454 74.6808 118.85 71.4012" stroke="#6AA7FF" stroke-width="1.87757" stroke-linecap="round"/>
<path d="M104.536 83.2449C107.618 80.484 110.552 81.4996 111.859 84.9085" stroke="#6AA7FF" stroke-width="1.87757" stroke-linecap="round"/>
<path d="M125.678 76.0589L124.532 79.4833C124.022 81.0053 125.351 82.5083 126.924 82.1887C128.497 81.8692 129.134 79.9667 128.071 78.7643L125.678 76.0589Z" fill="white"/>
<rect x="-0.396319" y="-0.290607" width="21.5454" height="4.17008" transform="matrix(-0.152101 -0.988365 -0.988365 0.152101 70.5069 85.5899)" fill="#A9CCFF" stroke="#A9CCFF" stroke-width="0.695013"/>
<path d="M49.1794 90.8199L52.443 88.207L64.4623 105.205L59.056 106.037L49.1794 90.8199Z" fill="#A9CCFF" stroke="#A9CCFF" stroke-width="0.695013"/>
<path d="M71.6481 87.348L67.7509 85.8376L59.4432 105.979L64.8174 105.151L71.6481 87.348Z" fill="#A9CCFF" stroke="#A9CCFF" stroke-width="0.695013"/>
<rect x="-0.396319" y="-0.290607" width="21.5454" height="4.17008" transform="matrix(-0.152101 -0.988365 -0.988365 0.152101 51.96 88.4447)" fill="#A9CCFF" stroke="#A9CCFF" stroke-width="0.695013"/>
<rect x="-0.396319" y="-0.290607" width="21.5454" height="5.5601" transform="matrix(-0.152101 -0.988365 -0.988365 0.152101 67.2854 124.059)" fill="#A9CCFF" stroke="#A9CCFF" stroke-width="0.695013"/>
<rect width="6.25511" height="9.03516" rx="0.695013" transform="matrix(-0.152101 -0.988365 -0.988365 0.152101 70.1433 129.294)" fill="#6AA7FF"/>
<rect width="34.0556" height="4.86509" rx="2.43254" transform="matrix(-0.988365 0.152101 0.152101 0.988365 72.4651 62.1328)" fill="#6AA7FF"/>
<rect width="34.0556" height="4.86509" rx="2.43254" transform="matrix(-0.988365 0.152101 0.152101 0.988365 75.848 84.114)" fill="#6AA7FF"/>
<path d="M39.4768 57.9024C33.9166 60.3351 31.1366 64.5048 31.8317 71.1074" stroke="#A9CCFF" stroke-width="2.08504" stroke-linecap="round"/>
<path d="M30.0334 56.9198C27.2533 58.6573 25.5158 64.5649 26.2108 68.7351" stroke="#A9CCFF" stroke-width="2.08504" stroke-linecap="round"/>
</svg>
