<svg width="16" height="16" viewBox="0 0 16 16" fill="none" xmlns="http://www.w3.org/2000/svg">
<path d="M7.62451 1.83301C8.45329 1.83301 9.24841 2.16204 9.83447 2.74805L10.9272 3.8418L10.9165 3.90234L10.9097 3.93164C10.8988 3.97398 10.8869 4.01602 10.8735 4.05762C10.811 4.25105 10.7341 4.43982 10.644 4.62207L10.6421 4.62695C10.6388 4.63386 10.6347 4.64048 10.6313 4.64746C10.664 4.54434 10.6811 4.43662 10.6792 4.32812C10.6768 4.1939 10.6469 4.0611 10.5923 3.93848C10.5514 3.84676 10.4971 3.76176 10.4312 3.68652L10.3608 3.61426L9.37354 2.62695C9.28438 2.53454 9.17842 2.45953 9.06104 2.40723C8.93842 2.35263 8.80558 2.32366 8.67139 2.32129C8.53733 2.31898 8.40412 2.34336 8.27979 2.39355C8.15527 2.44385 8.04173 2.5193 7.94678 2.61426C7.85202 2.7091 7.77729 2.82198 7.72705 2.94629C7.67676 3.07081 7.65144 3.2046 7.65381 3.33887C7.65621 3.47293 7.6862 3.60505 7.74072 3.72754C7.79284 3.84451 7.86752 3.95011 7.95947 4.03906V4.04004L8.95947 5.04004V5.03906C9.04873 5.13173 9.15435 5.20736 9.27197 5.25977C9.39462 5.31441 9.52737 5.34333 9.66162 5.3457C9.79567 5.34804 9.92888 5.32359 10.0532 5.27344C10.1777 5.22314 10.2913 5.14769 10.3862 5.05273C10.4159 5.02308 10.4427 4.991 10.4683 4.95801C10.2137 5.40969 9.82296 5.97099 9.22998 6.56348C8.57488 7.21913 7.95887 7.62706 7.48584 7.87793L7.29248 7.97656C7.0475 8.09446 6.85145 8.16548 6.7251 8.20605H6.72412C6.67314 8.22258 6.6209 8.23632 6.56885 8.24902L6.5083 8.26074L5.41455 7.16797C4.82854 6.58191 4.49951 5.78679 4.49951 4.95801C4.49954 4.12922 4.8285 3.33409 5.41455 2.74805C6.0006 2.162 6.79572 1.83303 7.62451 1.83301Z" fill="#14B8A6" stroke="#14B8A6"/>
<path d="M3.35156 7.78125C3.54152 8.068 3.75726 8.3371 4.00098 8.58105V8.58203L7.41895 11.999C7.66266 12.2426 7.93132 12.4585 8.21777 12.6484C7.99377 12.9739 7.71674 13.2613 7.39551 13.4951C6.94883 13.8202 6.43131 14.0343 5.88574 14.1211C5.33992 14.2079 4.78055 14.1648 4.25488 13.9941C3.72938 13.8235 3.25203 13.5303 2.86133 13.1396C2.47053 12.7489 2.17747 12.2708 2.00684 11.7451C1.83629 11.2195 1.79216 10.6609 1.87891 10.1152C1.96566 9.56956 2.18077 9.05223 2.50586 8.60547C2.73974 8.28414 3.026 8.00529 3.35156 7.78125ZM13.252 6.16602C13.542 6.45615 13.7727 6.80065 13.9297 7.17969C14.0866 7.55862 14.1669 7.96486 14.167 8.375C14.167 8.78532 14.0867 9.19219 13.9297 9.57129C13.7727 9.95036 13.5421 10.2948 13.252 10.585C12.9618 10.8751 12.6173 11.1056 12.2383 11.2627C11.8591 11.4197 11.4524 11.501 11.042 11.501C10.6316 11.501 10.2248 11.4197 9.8457 11.2627C9.46667 11.1056 9.12214 10.8751 8.83203 10.585L8.06836 9.82031C8.09952 9.8058 8.13118 9.79236 8.16211 9.77734L8.16113 9.77637C8.83517 9.45109 9.72255 8.9005 10.6445 7.97852C11.5663 7.056 12.1185 6.16886 12.4434 5.49414C12.4586 5.4626 12.4721 5.43099 12.4863 5.40039L13.252 6.16602Z" fill="#14B8A6" stroke="#14B8A6"/>
</svg>
