<svg width="19" height="19" viewBox="0 0 19 19" fill="none" xmlns="http://www.w3.org/2000/svg">
<path d="M2.45417 14.5067C1.31833 13.3708 0.75 12.8025 0.75 12.0967C0.75 11.39 1.31833 10.8217 2.45417 9.68583L9.68583 2.45417C10.8225 1.31833 11.39 0.75 12.0967 0.75C12.8033 0.75 13.3708 1.31833 14.5067 2.45417L15.7125 3.66C16.8483 4.79583 17.4167 5.36417 17.4167 6.07C17.4167 6.77583 16.8483 7.345 15.7125 8.48083L8.48083 15.7125C7.34417 16.8483 6.775 17.4167 6.07 17.4167C5.365 17.4167 4.79583 16.8483 3.66 15.7125L2.45417 14.5067Z" stroke="#6366F1" stroke-width="1.5"/>
<path d="M6.13656 6.13656L7.31656 7.31656M9.6724 2.60156L10.8507 3.7799M2.60156 9.6724L3.7799 10.8507M4.36906 7.9049L6.1374 9.6724M7.9049 4.36906L9.6724 6.13656" stroke="#6366F1" stroke-width="1.5" stroke-linecap="round"/>
</svg>
