<svg width="16" height="16" viewBox="0 0 16 16" fill="none" xmlns="http://www.w3.org/2000/svg">
<path d="M8 2V13.5M8 13.5C7.01867 13.5 6.07867 13.6767 5.21 14M8 13.5C8.98133 13.5 9.92133 13.6767 10.79 14M12.5 3.31333C11.0092 3.10316 9.5055 2.99846 8 3C6.47267 3 4.97 3.10667 3.5 3.31333M12.5 3.31333C13.1733 3.40889 13.84 3.52444 14.5 3.66M12.5 3.31333L14.2467 10.464C14.328 10.7967 14.176 11.1493 13.854 11.2653C13.4196 11.4211 12.9615 11.5005 12.5 11.5C12.0385 11.5005 11.5804 11.4211 11.146 11.2653C10.824 11.1493 10.672 10.7967 10.7527 10.464L12.5 3.31333ZM3.5 3.31333C2.82667 3.40889 2.16 3.52444 1.5 3.66M3.5 3.31333L5.24667 10.464C5.328 10.7967 5.176 11.1493 4.854 11.2653C4.41958 11.4211 3.96149 11.5005 3.5 11.5C3.03851 11.5005 2.58042 11.4211 2.146 11.2653C1.824 11.1493 1.672 10.7967 1.75267 10.464L3.5 3.31333Z" stroke="#F59E0B" stroke-width="1.5" stroke-linecap="round" stroke-linejoin="round"/>
</svg>
