<svg width="73" height="66" viewBox="0 0 73 66" fill="none" xmlns="http://www.w3.org/2000/svg">
<path opacity="0.4" d="M47.8539 13.3467L24.1022 21.5854C13.7853 25.164 9.76817 33.448 13.3468 43.7649L21.5757 67.4883C25.1641 77.8336 33.448 81.8507 43.765 78.2721L67.4884 70.0432C77.8053 66.4646 81.8224 58.1807 78.2438 47.8637L70.0051 24.112C66.4548 13.7852 58.1709 9.76811 47.8539 13.3467Z" fill="#DBDBDB"/>
<path d="M38.0814 70.3999C36.9193 70.8029 35.6213 70.1735 35.2182 69.0115L33.1832 63.1444C32.7801 61.9823 33.4095 60.6844 34.5715 60.2813C35.7336 59.8782 37.0316 60.5076 37.4347 61.6697L39.4697 67.5368C39.8827 68.7272 39.2434 69.9968 38.0814 70.3999Z" fill="#DBDBDB"/>
<path d="M52.5931 65.3661C51.431 65.7692 50.1331 65.1398 49.73 63.9777L45.65 52.2152C45.2469 51.0531 45.8763 49.7552 47.0383 49.3521C48.2004 48.949 49.4984 49.5784 49.9014 50.7405L53.9815 62.503C54.3944 63.6934 53.7552 64.963 52.5931 65.3661Z" fill="#DBDBDB"/>
<path d="M67.1052 60.3327C65.9431 60.7358 64.6452 60.1064 64.2421 58.9444L58.127 41.3148C57.7239 40.1527 58.3533 38.8548 59.5154 38.4517C60.6775 38.0486 61.9754 38.678 62.3785 39.8401L68.4936 57.4696C68.9065 58.6601 68.2956 59.9198 67.1052 60.3327Z" fill="#DBDBDB"/>
<path d="M56.3715 22.5221C56.3224 22.3804 56.2067 22.23 56.1292 22.0982C56.0615 21.9946 55.984 21.8627 55.9164 21.7592C55.8204 21.6655 55.7058 21.6099 55.6098 21.5162C55.4855 21.4323 55.3513 21.3201 55.2084 21.2744C55.1702 21.2559 55.1604 21.2276 55.1321 21.2374C55.0274 21.2102 54.9325 21.2114 54.8278 21.1842C54.685 21.1385 54.5137 21.1026 54.3524 21.0951C54.191 21.0875 54.0493 21.1367 53.8977 21.1575C53.7745 21.1685 53.6796 21.1696 53.5663 21.209L45.2617 24.0895C44.0996 24.4926 43.4702 25.7906 43.8733 26.9526C44.2764 28.1147 45.5743 28.7441 46.7364 28.341L50.2793 27.1121C45.9914 36.5378 39.2188 44.4757 30.5027 50.198C29.4673 50.8747 29.1618 52.2826 29.8385 53.318C30.3995 54.203 31.5043 54.5501 32.468 54.2159C32.638 54.1569 32.7982 54.0695 32.9585 53.9822C42.202 47.9499 49.4248 39.5701 54.0765 29.6372L55.0301 32.3865C55.4332 33.5486 56.7312 34.178 57.8932 33.7749C59.0553 33.3718 59.6847 32.0738 59.2816 30.9118L56.401 22.6072C56.3912 22.5788 56.3814 22.5505 56.3715 22.5221Z" fill="#DBDBDB"/>
</svg>
