<svg width="9" height="8" viewBox="0 0 9 8" fill="none" xmlns="http://www.w3.org/2000/svg">
<path d="M7.12402 1.54102C7.41237 1.67241 7.65513 1.88988 7.81543 2.16797C8.01759 2.51872 8.07311 2.93504 7.96875 3.32617L7.62305 4.61426C7.47889 5.15345 7.21506 5.65375 6.85254 6.07812C6.54418 6.43904 6.16963 6.73552 5.75098 6.95605L5.59277 6.60156C5.95888 6.40511 6.28683 6.1432 6.55762 5.82617C6.88256 5.44572 7.11797 4.99706 7.24707 4.51367L7.59277 3.22656V3.22559C7.67053 2.934 7.62922 2.62375 7.47852 2.3623C7.36995 2.17399 7.21087 2.0225 7.02148 1.92285L7.12402 1.54102ZM1.4375 0.454102C1.71503 0.294134 2.03388 0.227376 2.34863 0.257812L2.24609 0.639648C2.03255 0.630997 1.81893 0.682549 1.63086 0.791016C1.36928 0.941915 1.17792 1.19076 1.09961 1.48242L0.753906 2.76953C0.624817 3.24733 0.603158 3.74818 0.69043 4.23535C0.762853 4.63963 0.910527 5.02559 1.12207 5.37598L0.803711 5.60156C0.559673 5.20385 0.391069 4.7635 0.308594 4.30273C0.223572 3.82756 0.231696 3.34118 0.331055 2.87012L0.378906 2.66895L0.724609 1.38184C0.830052 0.990696 1.08658 0.656491 1.4375 0.454102Z" fill="#A9CCFF" stroke="#A9CCFF" stroke-width="0.5"/>
</svg>
