<svg width="70" height="61" viewBox="0 0 70 61" fill="none" xmlns="http://www.w3.org/2000/svg">
<path opacity="0.4" d="M32.8778 19.9707C34.2534 17.6201 37.4562 16.5091 40.0203 17.4932L45.8356 19.7945C46.9415 20.2365 48.7352 20.2812 49.8689 19.8879L54.6873 18.2166C57.6917 17.1745 61.0129 18.785 62.055 21.7894L63.7263 26.6078C64.1098 27.7131 65.2654 29.1223 66.2972 29.7169L71.7053 32.8581C74.0559 34.2338 75.1669 37.4366 74.1828 40.0006L71.8815 45.816C71.4395 46.9219 71.3948 48.7155 71.7881 49.8493L73.4594 54.6676C74.5015 57.672 72.891 60.9932 69.8866 62.0354L65.0682 63.7067C63.9629 64.0901 62.5537 65.2457 61.9591 66.2776L58.8179 71.6856C57.4422 74.0363 54.2394 75.1472 51.6754 74.1631L45.8601 71.8618C44.7541 71.4198 42.9605 71.3752 41.8267 71.7684L36.9233 73.4693C33.9189 74.5114 30.5977 72.9008 29.5556 69.8965L27.8744 65.0497C27.491 63.9444 26.3452 62.5636 25.3417 61.9591L19.9522 58.7797C17.6299 57.3943 16.5288 54.2198 17.4943 51.6939L19.7575 45.8601C20.1711 44.764 20.2158 42.9703 19.8324 41.8649L18.1414 36.9899C17.0992 33.9855 18.7098 30.6643 21.7142 29.6221L26.6176 27.9213C27.723 27.5379 29.1321 26.3823 29.7268 25.3504L32.8778 19.9707Z" fill="#DBDBDB"/>
<path d="M45.4966 55.9843C44.9298 56.1809 44.3126 56.141 43.7782 55.8818L34.5399 51.4019C33.4328 50.8651 32.9609 49.5046 33.4978 48.3975C34.0346 47.2905 35.3951 46.8186 36.5021 47.3554L43.7172 50.8542L51.6773 34.439C52.2142 33.332 53.5746 32.8601 54.6817 33.3969C55.7888 33.9338 56.2607 35.2942 55.7238 36.4013L46.7826 54.8397C46.5234 55.3741 46.0635 55.7877 45.4966 55.9843Z" fill="#DBDBDB"/>
</svg>
